<svg width="2550" height="2550" viewBox="0 0 2550 2550" fill="none" xmlns="http://www.w3.org/2000/svg">
<circle cx="1275" cy="1275" r="1250" fill="url(#paint0_radial_2890_2119)" stroke="url(#paint1_linear_2890_2119)" stroke-width="50"/>
<path d="M999.318 142.475C992.371 143.995 989.22 146.231 989.866 149.183C990.36 151.441 992.699 155.479 996.884 161.297L1035.06 213.545C1037.28 201.231 1039.04 190.563 1040.35 181.543C1041.79 172.312 1042.72 166.192 1043.16 163.186C1044.36 156.19 1045.04 151.854 1045.22 150.177C1045.54 148.288 1045.86 146.033 1046.2 143.412C1046.5 140.617 1046.44 138.264 1046.02 136.354C1045.76 135.138 1044.16 134.487 1041.23 134.4C1037.25 134.541 1033.97 134.896 1031.36 135.466C1030.86 134.847 1030.44 133.757 1030.1 132.194C1029.76 130.631 1029.7 129.551 1029.94 128.954C1040.2 127.618 1047.15 126.552 1050.8 125.754C1054.45 124.956 1057.62 124.08 1060.33 123.125C1063.03 122.17 1066.1 121.225 1069.53 120.292C1069.99 120.737 1070.4 121.741 1070.74 123.304C1071.25 124.829 1071.33 125.996 1070.96 126.804C1064.36 128.248 1060.57 130.077 1059.6 132.291C1058.4 135.103 1057.1 140.391 1055.7 148.158L1038.59 240.89C1038.24 242.605 1037.28 244.453 1035.71 246.434C1034.31 248.377 1033.09 249.462 1032.05 249.69C1031.18 249.88 1030.61 249.734 1030.32 249.251C1030.07 248.941 1029.69 248.477 1029.19 247.859L972.591 168.795C971.017 166.591 969.425 164.301 967.813 161.924C966.201 159.547 964.665 157.517 963.205 155.834C961.881 153.94 959.666 152.969 956.562 152.92C953.631 152.833 951.645 152.904 950.603 153.132C949.93 152.551 949.509 151.46 949.341 149.859C948.999 148.296 948.945 147.216 949.178 146.619C957.531 145.702 965.788 144.35 973.951 142.565C981.419 140.931 989.4 138.731 997.893 135.963C998.354 136.408 998.756 137.412 999.098 138.975C999.44 140.538 999.513 141.705 999.318 142.475Z" fill="white"/>
<path d="M1090.48 117.948C1099.4 117.622 1107.83 116.916 1115.76 115.829C1123.33 114.791 1131.46 113.228 1140.14 111.14C1140.57 111.62 1140.89 112.653 1141.11 114.238C1141.33 115.823 1141.31 116.992 1141.05 117.745C1137.7 118.204 1135.11 118.918 1133.27 119.888C1131.43 120.859 1130.46 121.62 1130.35 122.172C1129.74 124.23 1129.52 126.593 1129.71 129.259C1130.07 131.901 1130.51 135.071 1131.01 138.77L1139.81 202.97C1140.34 206.844 1140.79 210.103 1141.15 212.745C1141.69 215.363 1142.31 217.252 1143.01 218.412C1143.68 219.397 1144.49 220.093 1145.44 220.5C1146.55 220.708 1147.66 220.915 1148.76 221.123C1150.75 221.209 1152.88 221.096 1155.17 220.782C1155.62 221.438 1155.96 222.559 1156.17 224.144C1156.39 225.729 1156.36 226.81 1156.08 227.387C1139.31 228.071 1122.75 230.34 1106.41 234.195C1105.98 233.715 1105.66 232.682 1105.45 231.097C1105.23 229.512 1105.25 228.343 1105.5 227.59C1109.2 227.083 1111.88 226.356 1113.55 225.41C1115.19 224.288 1116.15 223.439 1116.43 222.862C1117.02 220.628 1116.71 215.108 1115.51 206.301L1106.71 142.101C1105.55 133.647 1104.36 128.247 1103.14 125.902C1101.64 124.134 1097.72 123.684 1091.38 124.553C1090.93 123.897 1090.6 122.776 1090.38 121.191C1090.16 119.606 1090.2 118.525 1090.48 117.948Z" fill="white"/>
<path d="M1179.41 112.599C1178.87 112.602 1178.6 111.625 1178.6 109.669C1178.59 107.536 1178.76 106.291 1179.11 105.934C1181.96 106.1 1184.98 106.355 1188.18 106.698C1191.38 107.041 1195.3 107.203 1199.92 107.185C1204.72 107.166 1210.85 106.697 1218.31 105.778C1221.54 113.055 1234.77 130.336 1257.99 157.621C1263.88 164.709 1269.51 171.62 1274.87 178.355C1275.22 177.82 1275.4 176.841 1275.39 175.419L1275.24 138.353C1275.2 128.22 1274.55 120.666 1273.29 115.694C1272.03 113.21 1267.23 111.984 1258.87 112.018C1258.69 112.018 1258.51 111.13 1258.33 109.353C1258.32 107.575 1258.49 106.241 1258.85 105.351C1262.94 105.69 1266.49 106.032 1269.52 106.375C1272.72 106.718 1276.36 106.881 1280.45 106.865C1284.54 106.849 1291.92 106.286 1302.58 105.177C1302.76 105.71 1302.85 106.776 1302.86 108.376C1302.86 109.976 1302.6 111.222 1302.07 112.113C1297.63 112.13 1294.16 112.589 1291.68 113.487C1289.37 114.385 1288.04 115.191 1287.69 115.903C1287.33 116.616 1287.07 117.861 1286.9 119.64C1286.73 121.418 1286.56 123.374 1286.39 125.508C1286.05 129.776 1285.89 133.866 1285.91 137.777L1286.14 197.51C1286.18 207.11 1286.48 215.375 1287.04 222.307C1286.69 222.664 1285.98 222.844 1284.91 222.848L1282.51 222.858C1280.73 222.865 1278.95 221.539 1277.16 218.879L1205.08 130.898L1205.33 194.631C1205.36 201.742 1206.01 207.428 1207.27 211.69C1208.16 213.819 1212.08 215.315 1219.02 216.176C1220.44 216.349 1221.33 216.434 1221.69 216.433C1222.22 217.319 1222.49 218.563 1222.5 220.163C1222.51 221.585 1222.42 222.563 1222.25 223.097C1211.57 222.073 1204.19 221.569 1200.11 221.585C1196.02 221.601 1192.37 221.793 1189.17 222.162C1186.15 222.529 1182.6 222.899 1178.51 223.271C1178.15 222.383 1177.97 221.05 1177.96 219.273C1178.13 217.494 1178.31 216.605 1178.49 216.604C1182.22 216.589 1185.42 216.043 1188.08 214.966C1190.74 213.889 1192.34 212.816 1192.87 211.747C1194.1 208.897 1194.7 203.028 1194.66 194.14L1194.42 132.007C1194.38 121.873 1192.58 116.103 1189.02 114.695C1185.81 113.285 1182.61 112.587 1179.41 112.599Z" fill="white"/>
<path d="M1345.14 218.767C1349.4 219.082 1353.3 218.122 1356.85 215.889C1360.42 213.479 1362.43 209.171 1362.89 202.966C1363.28 197.647 1360.42 191.82 1354.29 185.484C1351.81 182.805 1349.14 180.38 1346.27 178.206C1343.4 176.033 1340.7 173.962 1338.17 171.993C1335.66 169.846 1332.88 167.591 1329.85 165.227C1326.99 162.877 1324.42 160.28 1322.14 157.437C1317.43 151.206 1315.37 144.013 1315.98 135.858C1316.62 127.17 1321.16 119.93 1329.61 114.138C1337.51 108.66 1346.24 106.275 1355.81 106.983C1360.96 107.363 1365.7 108.249 1370.06 109.64C1374.59 111.045 1379.47 112.476 1384.71 113.933C1384.9 118.581 1384.91 123.306 1384.74 128.106C1384.74 132.919 1384.72 137.998 1384.68 143.343C1383.92 144 1383.27 144.309 1382.74 144.269C1379.37 144.02 1377.63 143.446 1377.52 142.547C1377.06 136.63 1375.08 130.869 1371.58 125.261C1367.44 118.538 1362.27 114.947 1356.06 114.488C1352.52 114.226 1349.07 115.041 1345.72 116.932C1342.37 118.824 1340.48 122.695 1340.05 128.546C1339.48 136.17 1347.21 146.189 1363.23 158.603C1365.92 160.763 1368.7 163.018 1371.55 165.369C1374.6 167.555 1377.27 170.07 1379.55 172.912C1384.75 179.714 1387.02 187.636 1386.35 196.678C1385.66 206.075 1381.09 213.581 1372.65 219.196C1364.58 224.661 1355.67 227.033 1345.92 226.312C1335.64 225.552 1324.59 223.13 1312.77 219.048C1311.69 209.52 1311.05 202.432 1310.86 197.783C1310.85 193.147 1310.8 190.202 1310.71 188.948C1311.11 188.442 1311.95 187.969 1313.23 187.529C1314.68 187.102 1315.86 186.921 1316.74 186.987C1317.63 187.052 1318.13 187.535 1318.24 188.434C1318.71 194.173 1321.28 200.335 1325.96 206.921C1331.48 214.281 1337.87 218.23 1345.14 218.767Z" fill="white"/>
<path d="M1482.54 127.315C1492.62 129.668 1499.68 131.136 1503.73 131.721C1507.95 132.33 1511.59 132.675 1514.63 132.755C1517.85 132.86 1521.23 133.079 1524.77 133.411C1525.05 133.99 1525.07 135.071 1524.84 136.654C1524.61 138.238 1524.27 139.356 1523.82 140.009C1519.24 139.349 1515.84 139.306 1513.6 139.881C1511.54 140.481 1510.27 141.196 1509.79 142.025C1507.57 146.195 1505.76 153.119 1504.36 162.797L1499.49 196.58C1497.07 213.295 1490.36 225.618 1479.33 233.546C1469.52 240.571 1457.83 243.106 1444.29 241.15C1436.9 240.083 1430.12 237.849 1423.97 234.445C1417.84 230.866 1413.17 226.51 1409.96 221.376C1406.95 216.092 1405.1 210.257 1404.4 203.87C1403.91 197.332 1404.32 189.488 1405.64 180.339L1410.98 143.389C1411.51 139.694 1411.88 136.514 1412.09 133.849C1412.47 131.21 1412.48 129.236 1412.13 127.928C1411.78 126.62 1411.11 125.714 1410.1 125.21C1409.27 124.731 1408.27 124.227 1407.09 123.697C1405.02 123.04 1403.03 122.572 1401.09 122.293C1400.84 121.538 1400.83 120.369 1401.06 118.786C1401.29 117.202 1401.62 116.172 1402.04 115.695C1410.71 117.844 1418.92 119.478 1426.66 120.596C1434.4 121.713 1442.74 122.467 1451.66 122.857C1451.94 123.436 1451.96 124.517 1451.73 126.101C1451.5 127.684 1451.16 128.803 1450.71 129.456C1447.54 128.998 1444.85 128.969 1442.64 129.368C1440.43 129.767 1439.19 130.218 1438.94 130.721C1437.71 133.057 1436.48 138.448 1435.26 146.894L1430.65 178.829C1429.79 184.812 1429.19 190.204 1428.85 195.005C1428.72 199.656 1429.23 204.22 1430.38 208.697C1431.71 213.199 1433.35 216.759 1435.3 219.377C1437.46 221.844 1439.7 223.783 1442.01 225.195C1445.27 227.462 1449.11 228.913 1453.5 229.548C1457.9 230.183 1461.89 229.95 1465.46 228.849C1469.03 227.748 1472.39 225.629 1475.54 222.491C1482.64 215.612 1487.21 205.135 1489.24 191.059L1493.5 161.498C1494.93 151.645 1495.16 144.405 1494.22 139.777C1493.87 138.469 1492.41 137.361 1489.85 136.452C1486.81 135.115 1484.05 134.269 1481.59 133.913C1481.34 133.159 1481.33 131.99 1481.56 130.406C1481.79 128.822 1482.11 127.792 1482.54 127.315Z" fill="white"/>
<path d="M1569.13 268.019C1553.15 262.883 1536.82 259.309 1520.15 257.298C1519.92 256.701 1519.98 255.621 1520.32 254.058C1520.66 252.495 1521.08 251.404 1521.58 250.786C1525.23 251.584 1527.99 251.826 1529.88 251.512C1531.81 251.024 1533 250.557 1533.47 250.112C1534.79 248.218 1536.4 242.93 1538.3 234.246L1552.16 170.945C1553.99 162.609 1554.73 157.131 1554.39 154.509C1553.56 152.507 1550.01 150.821 1543.76 149.452C1543.57 148.681 1543.64 147.515 1543.98 145.952C1544.33 144.389 1544.73 143.385 1545.19 142.94C1549.11 144.161 1553.24 145.248 1557.58 146.198L1569.82 148.878L1596.25 154.117C1607.36 156.55 1616.06 161.276 1622.35 168.294C1628.95 175.562 1631.2 183.972 1629.11 193.524C1626.98 203.249 1621.55 210.613 1612.81 215.615C1604.88 220.249 1596.4 221.577 1587.37 219.6C1584.24 218.916 1581.75 217.825 1579.9 216.327C1578.04 214.828 1576.82 213.743 1576.24 213.07C1575.87 212.261 1575.69 211.037 1575.68 209.398C1575.85 207.797 1576.2 207.054 1576.72 207.168C1577.82 207.955 1580.28 208.767 1584.1 209.603C1588.09 210.477 1591.85 209.116 1595.37 205.518C1599.06 201.958 1601.44 197.747 1602.5 192.884C1603.6 187.848 1604.06 183.672 1603.88 180.356C1603.73 176.866 1603.04 173.802 1601.8 171.165C1598.98 164.907 1594.97 161.207 1589.76 160.067C1587.67 159.611 1585.74 159.279 1583.97 159.073C1582.37 158.904 1581.28 159.303 1580.7 160.269C1579.71 161.506 1578.6 164.903 1577.38 170.461L1562.27 239.493C1561.43 243.313 1560.73 246.526 1560.16 249.131C1559.76 251.774 1559.69 253.76 1559.95 255.09C1560.24 256.246 1560.76 257.18 1561.52 257.891C1562.48 258.466 1563.45 259.042 1564.42 259.617C1566.25 260.383 1568.3 261.013 1570.55 261.507C1570.75 262.277 1570.68 263.444 1570.33 265.007C1569.99 266.57 1569.59 267.574 1569.13 268.019Z" fill="white"/>
<path d="M514.899 2031.52L499.983 2054.39C499.603 2054.76 498.785 2054.82 497.531 2054.55C496.527 2054.29 495.59 2053.72 494.718 2052.83C493.97 2052.07 493.662 2051.38 493.794 2050.75C496.736 2045.12 498.29 2040.1 498.455 2035.71C498.793 2026.15 495.163 2017.51 487.565 2009.77C478.97 2001.02 469.002 1998.1 457.661 2001.02C447.958 2003.57 438.224 2009.64 428.457 2019.23C418.056 2029.45 411.293 2040.45 408.17 2052.24C404.91 2065.16 407.391 2075.8 415.612 2084.17C419.224 2087.85 423.035 2090.46 427.044 2092.01C427.546 2092.01 427.986 2092.08 428.362 2092.21C428.865 2092.21 429.433 2091.9 430.067 2091.28L447.762 2073.9C450.298 2071.41 451.323 2069.28 450.836 2067.52C450.601 2065.76 450.174 2064.31 449.556 2063.17C448.315 2061.4 447.009 2059.82 445.639 2058.42C445.39 2058.17 445.901 2057.29 447.171 2055.8C448.567 2054.42 449.641 2053.74 450.395 2053.75C456.116 2060.59 461.842 2066.93 467.572 2072.76C473.302 2078.6 478.912 2083.8 484.402 2088.38C483.763 2089.5 482.81 2090.56 481.544 2091.56C480.403 2092.68 479.707 2093.11 479.458 2092.86C478.96 2092.35 477.711 2091.46 475.711 2090.18C473.838 2088.78 472.462 2088.02 471.583 2087.88C469.828 2087.37 467.428 2088.6 464.384 2091.59L451.066 2104.67L448.198 2108.98C447.184 2109.98 444.609 2109.64 440.476 2107.97C435.095 2105.28 429.527 2102.4 423.772 2099.33C418.017 2096.26 412.212 2091.75 406.357 2085.79C400.627 2079.95 396.161 2073.37 392.959 2066.05C390.008 2058.73 388.441 2051.3 388.258 2043.76C388.199 2036.34 389.586 2029 392.417 2021.73C395.249 2014.47 399.582 2007.97 405.417 2002.24C411.378 1996.39 418.08 1992.05 425.523 1989.22C433.092 1986.27 440.774 1984.84 448.567 1984.91C456.361 1984.98 463.953 1986.49 471.343 1989.45C478.858 1992.53 485.543 1997.06 491.397 2003.02C501.362 2013.17 509.196 2022.67 514.899 2031.52Z" fill="white"/>
<path d="M538.967 2114.28C532.872 2109.1 525.225 2111.23 516.027 2120.68C513.453 2123.16 511.014 2125.75 508.711 2128.46C506.408 2131.17 504.078 2134.32 501.721 2137.92C499.614 2141.49 498.077 2145.08 497.108 2148.69C494.5 2156.98 495.363 2162.96 499.697 2166.65C506.063 2172.06 513.855 2170.17 523.074 2160.97C525.397 2158.51 527.71 2155.93 530.013 2153.22C532.316 2150.51 534.578 2147.3 536.8 2143.59C539.022 2139.88 540.617 2136.22 541.586 2132.61C544.31 2124.19 543.436 2118.08 538.967 2114.28ZM545.256 2110.18C549.861 2114.09 553.426 2118.4 555.952 2123.12C558.613 2127.95 560.215 2132.93 560.756 2138.05C561.744 2148.69 558.611 2158.28 551.356 2166.81C544.217 2175.21 534.951 2179.93 523.559 2180.98C512.554 2182.13 502.581 2178.9 493.642 2171.3C484.296 2163.35 479.187 2153.99 478.314 2143.22C477.441 2132.44 480.574 2122.85 487.714 2114.46C494.738 2106.2 503.878 2101.48 515.134 2100.32C526.276 2099.29 536.316 2102.58 545.256 2110.18Z" fill="white"/>
<path d="M583.476 2232.48C576.496 2226.9 569.946 2222.14 563.826 2218.18C557.856 2214.31 550.897 2210.34 542.952 2206.26C542.943 2205.62 543.373 2204.63 544.242 2203.28C545.111 2201.94 545.888 2201.07 546.573 2200.66C549.707 2202.69 552.214 2203.89 554.093 2204.26C556.069 2204.48 557.276 2204.41 557.715 2204.06C559.427 2203.05 561.007 2201.42 562.456 2199.19C564.053 2197.04 565.915 2194.33 568.039 2191.05L607.44 2130.15C609.565 2126.86 610.693 2124.63 610.824 2123.44C611.053 2122.11 610.815 2121 610.113 2120.13C609.56 2119.34 608.884 2118.59 608.085 2117.86C606.381 2115.91 605.007 2114.6 603.962 2113.92C603.664 2113.73 603.875 2112.91 604.594 2111.47C605.56 2109.98 606.363 2109.23 607.004 2109.22C617.681 2114.65 627.523 2118.58 636.531 2121.02C638.165 2121.44 639.056 2121.7 639.205 2121.8C640.057 2122.77 640.224 2124.15 639.706 2125.93C638.248 2127.53 636.839 2129.05 635.478 2130.5C633.582 2132.45 631.234 2135.59 628.433 2139.92L587.294 2203.5C582.465 2210.97 579.889 2215.44 579.564 2216.92C579.336 2218.26 579.45 2219.39 579.906 2220.32C580.609 2221.2 581.311 2222.08 582.014 2222.96C583.462 2224.32 585.157 2225.62 587.097 2226.88C587.01 2227.67 586.531 2228.74 585.662 2230.08C584.793 2231.42 584.064 2232.22 583.476 2232.48Z" fill="white"/>
<path d="M640.86 2269.17L642.556 2266.78C642.967 2266.2 642.852 2265.9 642.211 2265.88C641.57 2265.86 640.413 2265.81 638.738 2265.71C637.064 2265.61 635.172 2265.36 633.063 2264.96C623.3 2263.05 616.358 2258.24 612.236 2250.53C607.866 2242.86 606.923 2234.35 609.407 2225C610.525 2220.34 612.883 2215.48 616.479 2210.4C620.179 2205.18 624.876 2201.32 630.57 2198.81C636.511 2196.27 642.468 2194.93 648.441 2194.81C654.413 2194.68 659.965 2195.45 665.097 2197.13C670.476 2198.76 674.762 2200.71 677.953 2202.97C681.145 2205.23 683.052 2206.69 683.675 2207.35C684.11 2207.65 685.098 2206.72 686.64 2204.54L695.888 2191.49C698.046 2188.44 699.4 2185.91 699.95 2183.91C700.131 2182.73 699.216 2181.1 697.203 2179.02C695.335 2177.04 693.966 2175.75 693.095 2175.13C692.805 2174.93 693.123 2174.17 694.047 2172.86C695.075 2171.41 695.837 2170.65 696.332 2170.56C704.97 2175.59 712.341 2179.18 718.446 2181.32C724.654 2183.32 727.852 2184.5 728.039 2184.85C728.475 2185.16 728.704 2185.76 728.728 2186.65C728.753 2187.53 728.61 2188.2 728.302 2188.63C724.409 2191.97 720.511 2196.4 716.606 2201.91L668.823 2269.37C668 2270.53 667.281 2271.55 666.665 2272.42C666.193 2273.39 666.063 2274.5 666.275 2275.74C666.529 2277.22 668.396 2279.2 671.878 2281.67C671.757 2282.45 671.337 2283.35 670.618 2284.37C670.001 2285.24 669.146 2285.83 668.052 2286.15C665.338 2284.44 661.176 2282.47 655.567 2280.24C645.569 2276.21 640.207 2273.94 639.482 2273.43C638.757 2272.91 639.216 2271.49 640.86 2269.17ZM635.728 2257.04C637.759 2258.48 640.253 2259.27 643.208 2259.4C646.164 2259.53 647.951 2259.16 648.567 2258.29L674.771 2221.3C675.696 2219.99 675.584 2217.85 674.435 2214.85C673.39 2211.72 671.489 2209.17 668.732 2207.22C666.121 2205.37 663.555 2204.53 661.034 2204.71C658.617 2204.74 656.181 2205.41 653.727 2206.72C649.211 2209.4 644.436 2214.3 639.401 2221.41C634.468 2228.37 631.437 2235.27 630.306 2242.09C629.424 2248.87 631.231 2253.86 635.728 2257.04Z" fill="white"/>
<path d="M1668.53 1182.22H1322.83V725.147H1931.23L1668.53 1182.22Z" fill="#0F9D58" stroke="#098046" stroke-width="96.8846"/>
<path d="M1612.21 1279.06L1323.97 1773.3V1279.06H1612.21Z" fill="#F4B400" stroke="#DD8500" stroke-width="96.8846"/>
<path d="M1227.15 1772.87L939.965 1279.06H1227.15V1772.87Z" fill="#4285F4" stroke="#1B58BC" stroke-width="96.8846"/>
<path d="M883.642 1182.22L619.021 725.147H1227.11V1182.22H883.642Z" fill="#DB4437" stroke="#CD1000" stroke-width="96.8846"/>
<path d="M1275.56 1623.61L827.123 846.902L1723.99 846.902L1275.56 1623.61Z" fill="white"/>
<path d="M1449.3 773.82C1417.2 805.919 1397.88 848.598 1394.93 893.897C1391.98 939.195 1405.61 984.019 1433.28 1020.01C1460.95 1056 1500.76 1080.69 1545.3 1089.48C1589.83 1098.28 1636.05 1090.57 1675.32 1067.8L1641.62 1009.69C1616.46 1024.28 1586.85 1029.21 1558.31 1023.58C1529.78 1017.94 1504.27 1002.12 1486.54 979.062C1468.81 956.003 1460.08 927.283 1461.97 898.259C1463.86 869.235 1476.24 841.89 1496.81 821.323L1449.3 773.82Z" fill="#0F9D58"/>
<path d="M768.962 2307.79L801.361 2240.45C802.493 2237.84 802.42 2235.78 801.143 2234.25C798.61 2231.6 795.957 2229.68 793.184 2228.48C793.048 2227.45 793.381 2226.24 794.18 2224.84C795.051 2223.28 795.603 2222.45 795.837 2222.36C799.517 2224.15 802.347 2225.67 804.326 2226.91C806.375 2228 809.276 2229.35 813.027 2230.98L830.332 2237.32L831.206 2319.08L831.589 2319.54C832.079 2319.75 832.465 2319.53 832.748 2318.88L847.025 2304.73C867.045 2284.92 880.132 2270.83 886.284 2262.46C886.284 2262.46 887.018 2262.77 888.486 2263.41L895.964 2266.95C895.964 2266.95 897.024 2267.4 899.144 2268.32C901.591 2269.39 909.479 2272.42 922.81 2277.43C922.995 2277.89 922.815 2278.98 922.271 2280.68C921.961 2282.29 921.501 2283.35 920.892 2283.86C920.076 2283.51 918.538 2283.03 916.276 2282.44C914.177 2281.92 912.579 2281.8 911.48 2282.1C909.354 2282.54 907.701 2284.34 906.52 2287.51C905.41 2290.52 903.734 2294.83 901.492 2300.44C899.321 2305.9 896.902 2311.92 894.236 2318.52C891.733 2325.18 889.113 2331.89 886.376 2338.65C883.71 2345.25 881.62 2350.73 880.107 2355.12C876.636 2364.46 874.823 2370.65 874.67 2373.69C874.36 2375.29 876.627 2377.44 881.47 2380.12C882.449 2380.55 883.101 2380.83 883.428 2380.97C883.416 2383.68 882.613 2385.75 881.02 2387.19C871.658 2381.97 864.368 2378.23 859.149 2375.96C853.929 2373.7 845.481 2370.62 833.802 2366.72C833.617 2366.25 833.762 2365.25 834.235 2363.71C834.872 2362.24 835.53 2361.17 836.21 2360.49C839.635 2361.98 842.386 2362.79 844.463 2362.91C846.774 2362.94 848.199 2362.79 848.737 2362.44C850.401 2360.84 851.623 2359.14 852.401 2357.34L856.751 2347.31L876.821 2297.01C879.933 2289.83 881 2286.03 880.021 2285.61C879.695 2285.47 879.309 2285.69 878.863 2286.27L817.062 2351.03C814.93 2352.82 812.883 2353.96 810.92 2354.47C809.191 2354.88 808 2354.95 807.347 2354.66C806.695 2354.38 806.241 2354.09 805.986 2353.78L806.382 2253.67C802.448 2261.85 799.268 2268.51 796.841 2273.66C794.578 2278.88 792.445 2283.58 790.443 2287.75C784.719 2299.6 780.821 2307.7 778.748 2312.03C775.239 2319.23 773.28 2324.19 772.872 2326.92C772.349 2329.02 775.51 2332.23 782.354 2336.56C783.681 2337.52 784.507 2338.07 784.833 2338.21C784.877 2339.01 784.615 2340.06 784.049 2341.36C783.647 2342.74 783.105 2343.76 782.426 2344.44C779.305 2342.69 776.184 2340.95 773.064 2339.21C769.943 2337.47 766.915 2335.97 763.979 2334.69C761.207 2333.49 753.981 2330.94 742.303 2327.04C742.173 2324.65 742.94 2322.66 744.604 2321.06C748.03 2322.54 751.365 2323.12 754.611 2322.78C757.858 2322.45 759.785 2322.02 760.394 2321.51C761.004 2321 761.673 2320.13 762.402 2318.89C763.294 2317.73 764.14 2316.45 764.939 2315.05C765.739 2313.66 766.539 2312.26 767.338 2310.86C768.138 2309.46 768.679 2308.44 768.962 2307.79Z" fill="white"/>
<path d="M941.092 2402.21C943.234 2403.07 945.049 2403.33 946.536 2402.97C948.254 2402.52 949.214 2402.04 949.414 2401.55L958.619 2378.81C956.473 2378.9 954.244 2378.95 951.933 2378.98C949.854 2378.9 947.558 2379.13 945.047 2379.64C940.421 2380.65 937.274 2383.21 935.607 2387.33C934.104 2391.52 934.09 2394.87 935.565 2397.38C937.107 2399.73 938.949 2401.34 941.092 2402.21ZM978.676 2414.54C979.299 2415.37 979.411 2416.28 979.011 2417.27C978.611 2418.26 977.963 2419.15 977.069 2419.94C975.68 2420.52 973.416 2421.14 970.277 2421.79C964.627 2422.95 960.319 2422.94 957.353 2421.74C954.386 2420.54 952.001 2418.61 950.196 2415.96C948.623 2413.22 947.824 2410.69 947.801 2408.38C944.56 2409.75 940.464 2410.39 935.512 2410.31C930.725 2410.29 927.179 2409.81 924.872 2408.88C922.564 2407.94 920.326 2406.36 918.156 2404.14C915.987 2401.92 914.362 2399.54 913.283 2396.99C910.831 2391.21 910.439 2386.25 912.107 2382.13C913.774 2378.01 915.899 2375.13 918.481 2373.49C921.294 2371.75 923.707 2371.01 925.72 2371.24C927.964 2371.39 930.522 2371.46 933.394 2371.47C936.431 2371.55 939.666 2371.62 943.099 2371.66C947.423 2371.88 953.497 2372.04 961.32 2372.13L964.422 2364.47C966.09 2360.35 966.684 2356.28 966.206 2352.25C965.794 2348.05 964.105 2345.36 961.139 2344.15C958.172 2342.95 955.496 2343.41 953.111 2345.51C950.89 2347.68 948.966 2350.06 947.337 2352.66C943.684 2357.9 939.303 2359.48 934.195 2357.41C932.053 2356.55 930.342 2355.09 929.063 2353.04C928.016 2350.89 927.825 2348.99 928.492 2347.34C929.426 2345.03 931.235 2342.69 933.919 2340.33C936.465 2339.25 940.232 2338.47 945.219 2338C955.357 2337.12 963.722 2338.01 970.314 2340.68C977.07 2343.41 981.822 2348.02 984.568 2354.5C987.479 2361.05 987.434 2368.03 984.432 2375.45L972.125 2405.85C971.191 2408.16 970.903 2410.06 971.26 2411.54C971.684 2412.86 972.39 2413.73 973.379 2414.13C974.532 2414.59 975.621 2414.75 976.645 2414.59L978.676 2414.54Z" fill="white"/>
<path d="M1023.12 2435.94C1016.02 2434.29 1008.04 2432.9 999.177 2431.77C998.951 2431.17 999.018 2430.09 999.379 2428.53C999.74 2426.97 1000.17 2425.88 1000.68 2425.27C1004.32 2426.11 1007.08 2426.39 1008.97 2426.1C1010.91 2425.63 1012.11 2425.18 1012.57 2424.74C1013.92 2422.86 1015.59 2417.59 1017.6 2408.93L1022.77 2386.59C1023.09 2385.2 1023.4 2383.08 1023.69 2380.23C1023.98 2377.38 1024.04 2375.57 1023.85 2374.8C1023.16 2372.26 1019.78 2370.3 1013.72 2368.89C1013.42 2368.64 1013.44 2367.73 1013.8 2366.18C1014.38 2364.48 1014.84 2363.68 1015.18 2363.76C1021.89 2364.76 1028.58 2365.03 1035.25 2364.57C1041.97 2363.93 1047.15 2363.22 1050.8 2362.42C1051.32 2362.54 1051.83 2363.11 1052.32 2364.14C1052.85 2364.99 1052.99 2365.57 1052.74 2365.88C1052.66 2366.22 1052.41 2366.9 1052 2367.9C1051.8 2368.76 1051.37 2369.85 1050.7 2371.15C1049.03 2374.42 1048.46 2376.11 1048.98 2376.23C1049.15 2376.27 1049.34 2376.22 1049.56 2376.09C1049.77 2375.96 1050.07 2375.84 1050.46 2375.75C1053.52 2373.54 1057.03 2371.8 1060.97 2370.52C1067.88 2368.28 1073.49 2367.67 1077.82 2368.67C1082.33 2369.71 1085.85 2371.44 1088.39 2373.85C1091.15 2376.13 1093.01 2379.12 1093.98 2382.81C1095.57 2389.38 1094.7 2399.85 1091.37 2414.23L1088.78 2425.4C1086.78 2434.06 1085.88 2439.14 1086.08 2440.65C1086.32 2441.98 1086.81 2443.01 1087.56 2443.73C1088.51 2444.31 1089.56 2444.92 1090.69 2445.55C1092.69 2446.38 1094.64 2447.01 1096.55 2447.45C1096.91 2448.26 1096.82 2449.43 1096.29 2450.95C1095.93 2452.51 1095.51 2453.51 1095.05 2453.94C1087.11 2451.2 1079.41 2448.96 1071.96 2447.24C1066.25 2445.91 1058.96 2444.68 1050.1 2443.55C1049.87 2442.95 1049.94 2441.87 1050.3 2440.31C1050.66 2438.75 1051.1 2437.66 1051.6 2437.05C1052.81 2437.33 1054.59 2437.56 1056.92 2437.73C1059.29 2437.74 1060.92 2437.02 1061.8 2435.58C1062.93 2433.83 1064.48 2428.72 1066.44 2420.23L1069.57 2406.72C1073.29 2390.61 1071.35 2381.68 1063.73 2379.91C1060.43 2379.15 1057.4 2379.27 1054.61 2380.27C1049.56 2382.38 1046.83 2384.31 1046.43 2386.04L1039.94 2414.1C1037.94 2422.76 1037.04 2427.84 1037.23 2429.35C1037.47 2430.68 1037.97 2431.71 1038.71 2432.43C1039.5 2432.97 1040.37 2433.54 1041.33 2434.13C1042.98 2434.88 1044.76 2435.47 1046.67 2435.91C1046.85 2436.68 1046.76 2437.85 1046.4 2439.41C1046.04 2440.97 1045.63 2441.97 1045.16 2442.4C1036.7 2439.54 1029.36 2437.38 1023.12 2435.94Z" fill="white"/>
<path d="M1149.71 2449.87C1152.01 2450.13 1153.82 2449.88 1155.16 2449.13C1156.69 2448.23 1157.48 2447.51 1157.54 2446.98L1160.22 2422.59C1158.18 2423.26 1156.05 2423.92 1153.83 2424.57C1151.81 2425.07 1149.66 2425.9 1147.39 2427.08C1143.21 2429.31 1140.87 2432.63 1140.39 2437.04C1140.08 2441.48 1140.98 2444.71 1143.08 2446.73C1145.2 2448.57 1147.41 2449.62 1149.71 2449.87ZM1189.23 2451.54C1190.06 2452.16 1190.41 2453.01 1190.29 2454.07C1190.18 2455.13 1189.79 2456.16 1189.15 2457.16C1187.97 2458.1 1185.96 2459.31 1183.12 2460.79C1177.99 2463.45 1173.84 2464.6 1170.66 2464.25C1167.48 2463.9 1164.66 2462.7 1162.21 2460.64C1159.95 2458.42 1158.49 2456.2 1157.84 2453.99C1155.09 2456.19 1151.33 2457.92 1146.54 2459.18C1141.93 2460.46 1138.38 2460.97 1135.91 2460.7C1133.44 2460.42 1130.85 2459.51 1128.16 2457.97C1125.47 2456.42 1123.26 2454.57 1121.53 2452.41C1117.6 2447.5 1115.87 2442.84 1116.36 2438.43C1116.85 2434.01 1118.11 2430.66 1120.15 2428.38C1122.38 2425.94 1124.5 2424.57 1126.5 2424.25C1128.7 2423.78 1131.18 2423.15 1133.95 2422.39C1136.9 2421.64 1140.03 2420.82 1143.34 2419.93C1147.56 2418.96 1153.45 2417.47 1161.01 2415.44L1161.91 2407.22C1162.4 2402.8 1161.86 2398.72 1160.31 2394.97C1158.77 2391.04 1156.41 2388.91 1153.23 2388.56C1150.05 2388.21 1147.6 2389.37 1145.87 2392.04C1144.33 2394.73 1143.12 2397.55 1142.26 2400.5C1140.17 2406.53 1136.38 2409.24 1130.9 2408.64C1128.61 2408.38 1126.56 2407.44 1124.77 2405.82C1123.18 2404.03 1122.48 2402.26 1122.68 2400.49C1122.95 2398.02 1124.06 2395.28 1126 2392.27C1128.15 2390.54 1131.57 2388.77 1136.24 2386.96C1145.76 2383.35 1154.05 2381.94 1161.12 2382.72C1168.36 2383.51 1174.19 2386.66 1178.59 2392.15C1183.17 2397.66 1185.02 2404.39 1184.15 2412.35L1180.56 2444.95C1180.29 2447.42 1180.53 2449.33 1181.28 2450.66C1182.04 2451.82 1182.96 2452.46 1184.02 2452.57C1185.26 2452.71 1186.35 2452.56 1187.29 2452.13L1189.23 2451.54Z" fill="white"/>
<path d="M1282.27 2385.48C1277.47 2385.14 1274.45 2384.89 1273.2 2384.71C1271.96 2384.54 1271.34 2384.63 1271.34 2384.98C1273.84 2388.71 1275.09 2392.62 1275.11 2396.71C1275.12 2400.8 1274.33 2404.44 1272.74 2407.65C1271.15 2410.85 1268.85 2413.61 1265.83 2415.93C1259.45 2421.29 1251.9 2423.98 1243.19 2424C1239.81 2424.01 1236.79 2423.76 1234.12 2423.23C1233.23 2424.12 1232.26 2425.02 1231.2 2425.91C1230.31 2426.8 1229.87 2427.87 1229.87 2429.11C1229.88 2430.18 1230.77 2431.15 1232.55 2432.04C1234.33 2432.74 1236.55 2433.09 1239.22 2433.08C1242.06 2433.07 1245.71 2433.06 1250.15 2433.05C1254.77 2432.86 1258.86 2432.93 1262.42 2433.28C1265.97 2433.45 1269.18 2434.32 1272.03 2435.92C1275.05 2437.33 1277.55 2439.01 1279.51 2440.96C1283.25 2444.68 1285.13 2448.85 1285.15 2453.48C1285.16 2458.1 1283.84 2462.64 1281.19 2467.09C1278.53 2471.54 1274.99 2475.29 1270.56 2478.32C1260.98 2485.11 1250.14 2488.52 1238.05 2488.55C1229.34 2488.58 1222.23 2486.73 1216.7 2483.02C1211.36 2479.3 1208.68 2474.42 1208.66 2468.38C1208.65 2464.82 1210.24 2461.44 1213.43 2458.23C1216.8 2455.2 1220.17 2452.87 1223.54 2451.26C1220.51 2450.38 1217.93 2448.26 1215.79 2444.89C1213.82 2441.34 1212.83 2437.7 1212.82 2433.96C1212.81 2431.12 1217.69 2426.84 1227.45 2421.12C1222.29 2419.18 1218.19 2416.26 1215.15 2412.36C1212.3 2408.28 1210.86 2404.01 1210.85 2399.57C1210.84 2395.12 1211.62 2391.39 1213.21 2388.36C1214.98 2385.16 1217.29 2382.3 1220.12 2379.81C1226.15 2374.81 1233.7 2372.3 1242.77 2372.27C1250.77 2372.25 1256.99 2373.65 1261.45 2376.48C1261.8 2376.84 1262.16 2377.01 1262.51 2377.01L1284.64 2374.81C1285.89 2375.52 1286.51 2376.23 1286.51 2376.94C1286.52 2377.47 1285.99 2378.9 1284.93 2381.21C1284.04 2383.52 1283.16 2384.95 1282.27 2385.48ZM1230.74 2452.58C1228.8 2455.07 1227.83 2457.65 1227.83 2460.32C1227.85 2466.18 1229.82 2470.71 1233.74 2473.9C1237.66 2477.09 1242.2 2478.67 1247.36 2478.66C1252.69 2478.64 1256.69 2478.1 1259.35 2477.02C1262.02 2476.12 1264.15 2474.96 1265.74 2473.54C1268.4 2471.22 1269.72 2468.1 1269.71 2464.19C1269.7 2460.28 1267.83 2457.35 1264.09 2455.41C1260.35 2453.46 1255.63 2452.5 1249.94 2452.52L1230.74 2452.58ZM1241.99 2378.67C1236.3 2378.69 1233.11 2382.43 1232.42 2389.9C1232.25 2392.04 1232.17 2394.26 1232.17 2396.57C1232.18 2398.7 1232.36 2401.1 1232.73 2403.77C1233.27 2406.26 1233.99 2408.57 1234.88 2410.7C1237.21 2415.31 1240.5 2417.61 1244.77 2417.6C1250.46 2417.58 1253.38 2413.66 1253.53 2405.84C1253.71 2403.88 1253.79 2401.84 1253.78 2399.7C1253.78 2397.57 1253.59 2395.26 1253.23 2392.77C1252.86 2390.11 1252.24 2387.71 1251.34 2385.58C1249.19 2380.96 1246.07 2378.66 1241.99 2378.67Z" fill="white"/>
<path d="M1319.7 2420.7C1320.06 2420.66 1321.21 2420.54 1323.15 2420.34C1325.26 2419.93 1327.53 2419.51 1329.99 2419.08C1335.63 2418.3 1339.67 2417.61 1342.11 2416.99C1343.68 2416.65 1344.37 2415.59 1344.18 2413.82C1343.98 2411.88 1343.59 2409.86 1343.01 2407.78C1342.43 2405.7 1341.62 2403.9 1340.56 2402.41C1338.21 2398.72 1335.44 2397.05 1332.26 2397.38C1329.25 2397.7 1326.96 2398.84 1325.38 2400.79C1323.78 2402.57 1322.48 2404.67 1321.49 2407.1C1319.85 2411.92 1319.26 2416.46 1319.7 2420.7ZM1362.11 2421.05C1351.6 2423.05 1337.7 2425.23 1320.43 2427.59C1321.57 2438.38 1325.42 2446.02 1331.97 2450.51C1336.96 2453.74 1342.11 2455.07 1347.41 2454.51C1352.89 2453.93 1357.03 2452.51 1359.83 2450.25C1362.63 2447.98 1364.9 2445.78 1366.64 2443.63C1368.09 2443.83 1368.9 2444.73 1369.07 2446.32C1369.24 2447.91 1369.03 2449.28 1368.43 2450.41C1367.99 2451.35 1366.99 2452.89 1365.43 2455.02C1363.85 2456.97 1361.83 2458.97 1359.36 2461.02C1353.13 2466.33 1346.92 2469.31 1340.73 2469.96C1334.54 2470.62 1329.16 2470.38 1324.57 2469.26C1319.96 2467.96 1315.81 2465.89 1312.11 2463.07C1304.14 2456.94 1299.57 2448.39 1298.41 2437.43C1297.22 2426.12 1300.06 2415.8 1306.94 2406.5C1314.3 2396.6 1322.84 2391.14 1332.56 2390.11C1342.99 2389.01 1351.28 2391.26 1357.41 2396.87C1362.53 2401.34 1365.43 2406.84 1366.13 2413.38C1366.33 2415.33 1366.07 2417.05 1365.33 2418.56C1364.6 2420.07 1363.52 2420.9 1362.11 2421.05Z" fill="white"/>
<path d="M1416.14 2457.67C1408.96 2458.91 1401.06 2460.73 1392.46 2463.13C1392.02 2462.66 1391.66 2461.64 1391.39 2460.07C1391.11 2458.49 1391.09 2457.32 1391.32 2456.56C1395 2455.92 1397.65 2455.1 1399.28 2454.1C1400.88 2452.92 1401.81 2452.03 1402.07 2451.45C1402.58 2449.19 1402.08 2443.69 1400.56 2434.93L1396.64 2412.33C1396.4 2410.93 1395.86 2408.86 1395.02 2406.12C1394.19 2403.38 1393.53 2401.68 1393.06 2401.05C1391.44 2398.98 1387.56 2398.48 1381.43 2399.54C1381.05 2399.43 1380.72 2398.58 1380.45 2397.01C1380.32 2395.22 1380.43 2394.3 1380.78 2394.24C1387.35 2392.56 1393.62 2390.21 1399.59 2387.19C1405.53 2384 1410.03 2381.32 1413.08 2379.17C1413.64 2379.25 1414.33 2379.58 1415.15 2380.16C1415.97 2380.74 1416.33 2381.22 1416.21 2381.6C1416.03 2384.7 1416.03 2387.32 1416.22 2389.45C1416.41 2391.58 1416.59 2392.63 1416.77 2392.6C1416.94 2392.57 1417.1 2392.46 1417.25 2392.25C1417.39 2392.04 1417.62 2391.82 1417.94 2391.59C1419.91 2388.36 1422.46 2385.39 1425.6 2382.68C1431.09 2377.94 1436.21 2375.16 1440.93 2374.34C1445.84 2373.49 1450.05 2373.84 1453.57 2375.4C1457.26 2376.92 1460.64 2380.3 1463.72 2385.55C1464.07 2385.48 1464.6 2384.94 1465.33 2383.91C1466.02 2382.71 1467.28 2381.14 1469.11 2379.2C1471.12 2377.23 1473.31 2375.31 1475.69 2373.45C1481.42 2369.03 1486.39 2366.46 1490.59 2365.73C1494.97 2364.97 1498.8 2365.21 1502.08 2366.44C1505.51 2367.47 1508.3 2369.51 1510.45 2372.57C1514.46 2378.01 1517.73 2388 1520.25 2402.54L1522.21 2413.83C1522.88 2417.69 1523.44 2420.93 1523.9 2423.56C1524.53 2426.15 1525.21 2428.02 1525.95 2429.15C1526.66 2430.11 1527.49 2430.78 1528.46 2431.15C1529.57 2431.32 1530.77 2431.48 1532.06 2431.61C1533.87 2431.66 1535.92 2431.49 1538.19 2431.09C1538.67 2431.73 1539.04 2432.84 1539.31 2434.42C1539.58 2435.99 1539.59 2437.07 1539.33 2437.66C1530.42 2438.3 1522.73 2439.19 1516.25 2440.31C1509.94 2441.4 1502.48 2443.15 1493.88 2445.54C1493.44 2445.08 1493.08 2444.06 1492.81 2442.48C1492.53 2440.9 1492.51 2439.73 1492.74 2438.97C1493.79 2438.79 1495.42 2438.33 1497.64 2437.58C1499.83 2436.66 1500.99 2435.56 1501.13 2434.27C1501.7 2432.37 1501.76 2430.1 1501.3 2427.47C1501.02 2424.82 1500.55 2421.56 1499.88 2417.71L1497.51 2404.04C1495.59 2393.01 1492.2 2385.93 1487.33 2382.8C1485.69 2381.65 1483.81 2381.25 1481.71 2381.61C1479.78 2381.95 1477.92 2382.63 1476.11 2383.67C1474.31 2384.7 1472.69 2385.79 1471.27 2386.94C1467.98 2389.86 1466.49 2392.19 1466.8 2393.94L1466.98 2394.99C1468.39 2399.98 1469.59 2405.37 1470.59 2411.15L1472.55 2422.45C1474.07 2431.2 1475.21 2436.24 1475.98 2437.55C1476.72 2438.68 1477.57 2439.44 1478.54 2439.81C1479.65 2439.98 1480.85 2440.13 1482.14 2440.27C1483.95 2440.32 1485.91 2440.16 1488.01 2439.79C1488.48 2440.43 1488.85 2441.54 1489.13 2443.12C1489.4 2444.69 1489.41 2445.78 1489.15 2446.36C1480.24 2447 1472.37 2447.92 1465.54 2449.1C1459.58 2450.14 1452.3 2451.85 1443.69 2454.24C1443.25 2453.78 1442.89 2452.76 1442.62 2451.18C1442.35 2449.6 1442.33 2448.44 1442.55 2447.67C1443.78 2447.46 1445.5 2446.98 1447.72 2446.24C1450.08 2445.29 1451.39 2443.98 1451.64 2442.31C1452 2440.26 1451.44 2434.95 1449.96 2426.36L1447.59 2412.7C1444.76 2396.41 1439.5 2388.93 1431.79 2390.27C1428.46 2390.85 1425.71 2392.14 1423.53 2394.14C1419.7 2398.05 1417.93 2400.88 1418.23 2402.63L1423.16 2431.01C1424.67 2439.77 1425.82 2444.8 1426.59 2446.11C1427.32 2447.25 1428.18 2448 1429.14 2448.38C1430.08 2448.57 1431.1 2448.76 1432.22 2448.93C1434.03 2448.97 1435.9 2448.83 1437.82 2448.49C1438.3 2449.13 1438.67 2450.24 1438.94 2451.82C1439.22 2453.4 1439.22 2454.48 1438.96 2455.06C1430.05 2455.71 1422.45 2456.57 1416.14 2457.67Z" fill="white"/>
<path d="M1557.77 2377.96C1558.12 2377.87 1559.23 2377.57 1561.12 2377.06C1563.13 2376.34 1565.32 2375.57 1567.68 2374.75C1573.13 2373.1 1577.01 2371.78 1579.32 2370.8C1580.82 2370.21 1581.34 2369.06 1580.88 2367.34C1580.37 2365.45 1579.67 2363.52 1578.77 2361.55C1577.87 2359.59 1576.79 2357.95 1575.52 2356.63C1572.61 2353.36 1569.62 2352.14 1566.53 2352.97C1563.61 2353.75 1561.52 2355.23 1560.26 2357.41C1558.96 2359.42 1558.01 2361.7 1557.41 2364.25C1556.54 2369.27 1556.67 2373.84 1557.77 2377.96ZM1599.71 2371.67C1589.64 2375.3 1576.26 2379.62 1559.57 2384.66C1562.38 2395.13 1567.37 2402.07 1574.55 2405.48C1579.98 2407.89 1585.27 2408.4 1590.42 2407.02C1595.75 2405.59 1599.61 2403.54 1602.02 2400.87C1604.44 2398.2 1606.33 2395.66 1607.72 2393.27C1609.18 2393.24 1610.12 2394 1610.54 2395.55C1610.95 2397.09 1610.95 2398.47 1610.54 2399.69C1610.26 2400.69 1609.51 2402.36 1608.3 2404.71C1607.04 2406.89 1605.36 2409.18 1603.24 2411.59C1597.92 2417.8 1592.25 2421.72 1586.24 2423.33C1580.23 2424.94 1574.87 2425.55 1570.17 2425.16C1565.41 2424.6 1560.99 2423.21 1556.9 2420.99C1548.06 2416.18 1542.21 2408.46 1539.36 2397.81C1536.41 2386.82 1537.6 2376.19 1542.95 2365.93C1548.66 2355 1556.25 2348.27 1565.69 2345.74C1575.82 2343.02 1584.35 2343.95 1591.29 2348.53C1597.04 2352.14 1600.77 2357.12 1602.48 2363.47C1602.99 2365.36 1602.99 2367.11 1602.5 2368.71C1602.01 2370.32 1601.08 2371.3 1599.71 2371.67Z" fill="white"/>
<path d="M1655.61 2396.81C1648.77 2399.34 1641.33 2402.55 1633.3 2406.46C1632.78 2406.08 1632.25 2405.14 1631.69 2403.64C1631.14 2402.14 1630.9 2401 1630.99 2400.21C1634.49 2398.91 1636.96 2397.63 1638.38 2396.35C1639.74 2394.9 1640.49 2393.86 1640.64 2393.24C1640.74 2390.93 1639.25 2385.6 1636.17 2377.26L1628.24 2355.75C1627.74 2354.41 1626.84 2352.47 1625.52 2349.93C1624.2 2347.38 1623.25 2345.84 1622.67 2345.29C1620.71 2343.55 1616.8 2343.76 1610.97 2345.92C1610.57 2345.87 1610.1 2345.1 1609.54 2343.6C1609.1 2341.87 1609.04 2340.94 1609.37 2340.82C1615.53 2337.98 1621.27 2334.54 1626.59 2330.49C1631.86 2326.27 1635.8 2322.83 1638.42 2320.16C1638.92 2319.97 1639.65 2320.18 1640.63 2320.76C1641.54 2321.18 1641.98 2321.59 1641.93 2321.99C1642.06 2322.32 1642.22 2323.02 1642.42 2324.08C1642.73 2324.92 1642.96 2326.06 1643.12 2327.52C1643.52 2331.16 1643.97 2332.89 1644.47 2332.71C1644.63 2332.65 1644.77 2332.5 1644.87 2332.27C1644.98 2332.04 1645.17 2331.78 1645.44 2331.49C1646.79 2327.96 1648.77 2324.58 1651.36 2321.35C1655.91 2315.7 1660.27 2312.1 1664.44 2310.56C1668.77 2308.96 1672.67 2308.47 1676.12 2309.09C1679.67 2309.49 1682.87 2310.96 1685.71 2313.52C1690.63 2318.14 1695.65 2327.38 1700.76 2341.22L1704.72 2351.98C1707.8 2360.32 1709.83 2365.06 1710.83 2366.21C1711.76 2367.2 1712.73 2367.78 1713.75 2367.98C1714.88 2367.94 1716.08 2367.87 1717.37 2367.78C1719.5 2367.37 1721.48 2366.83 1723.31 2366.15C1724.06 2366.64 1724.63 2367.66 1725.01 2369.22C1725.57 2370.72 1725.77 2371.79 1725.62 2372.41C1717.47 2374.47 1709.81 2376.82 1702.64 2379.46C1697.14 2381.49 1690.37 2384.46 1682.34 2388.37C1681.82 2388 1681.28 2387.06 1680.73 2385.56C1680.18 2384.06 1679.94 2382.91 1680.03 2382.12C1681.2 2381.69 1682.8 2380.91 1684.85 2379.77C1686.83 2378.47 1687.8 2376.98 1687.74 2375.29C1687.73 2373.21 1686.22 2368.09 1683.21 2359.91L1678.41 2346.9C1672.69 2331.39 1666.16 2324.99 1658.82 2327.7C1655.65 2328.87 1653.17 2330.63 1651.39 2332.99C1648.33 2337.53 1647.11 2340.64 1647.72 2342.31L1657.69 2369.33C1660.76 2377.67 1662.8 2382.41 1663.79 2383.56C1664.72 2384.54 1665.7 2385.13 1666.72 2385.32C1667.67 2385.35 1668.71 2385.35 1669.84 2385.31C1671.63 2385.03 1673.44 2384.55 1675.28 2383.87C1675.86 2384.42 1676.42 2385.44 1676.98 2386.94C1677.53 2388.44 1677.73 2389.5 1677.58 2390.13C1668.94 2392.37 1661.61 2394.6 1655.61 2396.81Z" fill="white"/>
<path d="M1709.08 2305.49C1709.64 2303.14 1710.61 2300.61 1711.99 2297.92L1719.12 2294.94L1715.53 2286.32C1717.48 2282.23 1719.2 2278.05 1720.69 2273.77C1722.34 2269.42 1723.88 2265.5 1725.31 2262.01C1726.02 2260.94 1726.82 2260.32 1727.71 2260.14C1728.53 2259.8 1729.12 2259.84 1729.49 2260.26L1740.29 2286.1L1758.74 2278.39C1759.4 2278.12 1760.07 2278.8 1760.75 2280.44C1761.37 2281.92 1760.86 2284.15 1759.22 2287.15L1743.47 2293.73L1760.23 2333.83C1763.65 2342.04 1768.32 2344.9 1774.22 2342.44C1776.03 2341.68 1777.63 2340.44 1779.02 2338.7C1780.34 2336.8 1781.1 2335.61 1781.29 2335.15C1782.22 2335.53 1782.79 2335.97 1783 2336.46C1783.61 2337.94 1783.73 2339.14 1783.35 2340.07C1783.13 2340.93 1782.65 2342.1 1781.92 2343.56C1781.34 2344.95 1780.52 2346.45 1779.46 2348.05C1776.29 2352.46 1773.23 2355.28 1770.28 2356.51C1767.49 2357.68 1764.61 2358.4 1761.64 2358.67C1758.91 2359.05 1756.14 2358.66 1753.35 2357.51C1747.05 2355.33 1742.15 2350.06 1738.65 2341.69L1722.31 2302.57L1710.75 2307.4C1710.12 2307.27 1709.56 2306.64 1709.08 2305.49Z" fill="white"/>
<path d="M1901.59 2282.52C1905.07 2280.05 1907.46 2276.82 1908.78 2272.84C1909.99 2268.71 1908.8 2264.11 1905.2 2259.03C1902.11 2254.68 1896.19 2252.02 1887.43 2251.04C1883.82 2250.55 1880.21 2250.38 1876.61 2250.54C1873.02 2250.69 1869.62 2250.81 1866.41 2250.91C1863.11 2250.85 1859.53 2250.88 1855.69 2251C1851.99 2251 1848.35 2250.64 1844.78 2249.91C1837.18 2248.1 1831.01 2243.87 1826.28 2237.2C1821.24 2230.09 1820.13 2221.61 1822.96 2211.77C1825.55 2202.52 1830.76 2195.11 1838.59 2189.56C1842.8 2186.58 1847.02 2184.24 1851.26 2182.53C1855.65 2180.73 1860.33 2178.72 1865.29 2176.5C1868.4 2179.97 1871.42 2183.6 1874.34 2187.42C1877.41 2191.12 1880.63 2195.05 1884.01 2199.2C1883.84 2200.19 1883.53 2200.84 1883.1 2201.15C1880.34 2203.1 1878.64 2203.77 1877.98 2203.14C1873.86 2198.87 1868.66 2195.69 1862.39 2193.61C1854.91 2191.06 1848.64 2191.59 1843.56 2195.19C1840.66 2197.24 1838.53 2200.07 1837.15 2203.66C1835.77 2207.25 1836.78 2211.44 1840.18 2216.23C1844.6 2222.46 1856.94 2225.26 1877.19 2224.62C1880.65 2224.57 1884.22 2224.54 1887.92 2224.54C1891.66 2224.28 1895.32 2224.52 1898.89 2225.25C1907.24 2227.18 1914.03 2231.84 1919.27 2239.24C1924.73 2246.92 1925.99 2255.62 1923.06 2265.32C1920.33 2274.68 1914.97 2282.18 1906.99 2287.84C1898.58 2293.8 1888.52 2298.98 1876.81 2303.36C1869.91 2296.7 1864.9 2291.65 1861.8 2288.18C1858.83 2284.62 1856.92 2282.38 1856.05 2281.47C1856.03 2280.83 1856.38 2279.93 1857.08 2278.78C1857.93 2277.52 1858.72 2276.63 1859.45 2276.12C1860.17 2275.6 1860.87 2275.66 1861.52 2276.28C1865.54 2280.41 1871.45 2283.51 1879.26 2285.61C1888.2 2287.76 1895.64 2286.74 1901.59 2282.52Z" fill="white"/>
<path d="M1936.69 2178.1C1930.17 2182.73 1930.36 2190.67 1937.25 2201.91C1939.02 2205.01 1940.94 2208.01 1942.99 2210.91C1945.05 2213.81 1947.54 2216.84 1950.44 2220.01C1953.39 2222.93 1956.5 2225.31 1959.76 2227.13C1967.14 2231.7 1973.16 2232.33 1977.79 2229.04C1984.6 2224.2 1984.69 2216.18 1978.04 2204.98C1976.23 2202.13 1974.29 2199.25 1972.23 2196.35C1970.17 2193.45 1967.62 2190.47 1964.57 2187.4C1961.51 2184.34 1958.36 2181.89 1955.1 2180.06C1947.61 2175.36 1941.47 2174.7 1936.69 2178.1ZM1934.26 2170.99C1939.18 2167.49 1944.24 2165.1 1949.43 2163.81C1954.77 2162.41 1959.99 2162.09 1965.09 2162.82C1975.65 2164.48 1984.17 2169.87 1990.66 2179C1997.04 2187.99 1999.34 2198.13 1997.56 2209.43C1995.96 2220.38 1990.38 2229.25 1980.81 2236.05C1970.82 2243.16 1960.49 2245.81 1949.83 2244C1939.17 2242.2 1930.65 2236.81 1924.26 2227.82C1917.98 2218.98 1915.66 2208.96 1917.3 2197.77C1919.04 2186.71 1924.69 2177.79 1934.26 2170.99Z" fill="white"/>
<path d="M2035.18 2186.21C2029.49 2190.77 2023.47 2196.19 2017.09 2202.45C2016.48 2202.25 2015.67 2201.53 2014.67 2200.29C2013.67 2199.04 2013.09 2198.03 2012.92 2197.25C2015.83 2194.91 2017.75 2192.91 2018.69 2191.24C2019.52 2189.43 2019.91 2188.21 2019.85 2187.57C2019.21 2185.35 2016.1 2180.78 2010.54 2173.85L1984.65 2141.62L1974.88 2149.47C1974.24 2149.53 1973.53 2149.07 1972.75 2148.1C1972.53 2145.55 1972.76 2142.86 1973.45 2140.02L1979.47 2135.18L1977.8 2133.1C1970.79 2124.37 1967.69 2113.41 1968.49 2100.22C1968.73 2094.55 1969.72 2089.54 1971.46 2085.18C1973.23 2080.57 1975.36 2077.26 1977.85 2075.25C1980.49 2073.14 1983.86 2071.23 1987.96 2069.53C1989.63 2069.33 1991.47 2069.22 1993.5 2069.18C1995.42 2069.01 1997.21 2069.97 1998.88 2072.05C2000.44 2073.99 2001.43 2076.5 2001.85 2079.58C2002.3 2082.41 2001.42 2084.72 1999.2 2086.5C1996.98 2088.28 1994.73 2089.17 1992.46 2089.18C1990.21 2088.93 1987.82 2088.8 1985.29 2088.77C1982.77 2088.75 1980.53 2089.52 1978.59 2091.08C1977.49 2091.97 1977.41 2093.86 1978.36 2096.74C1979.19 2099.49 1980.89 2102.46 1983.45 2105.64C1986.68 2109.66 1991.18 2114.83 1996.94 2121.15L2012.95 2108.29C2013.5 2107.85 2014.33 2108.32 2015.45 2109.7C2016.45 2110.95 2016.58 2113.24 2015.84 2116.57L2002.53 2127.26L2028.42 2159.49C2033.98 2166.42 2037.42 2170.27 2038.73 2171.04C2039.92 2171.68 2041.03 2171.93 2042.06 2171.79C2043.11 2171.39 2044.24 2170.95 2045.43 2170.45C2047.32 2169.39 2049.02 2168.25 2050.55 2167.02C2051.41 2167.24 2052.27 2168.03 2053.13 2169.39C2054.13 2170.64 2054.66 2171.58 2054.72 2172.22C2047.65 2176.76 2041.14 2181.42 2035.18 2186.21Z" fill="white"/>
<path d="M2024.85 2106.18C2024.76 2103.76 2025.02 2101.07 2025.63 2098.1L2031.72 2093.33L2025.96 2085.99C2026.76 2081.52 2027.3 2077.03 2027.59 2072.51C2028.03 2067.88 2028.47 2063.69 2028.93 2059.94C2029.33 2058.73 2029.93 2057.91 2030.74 2057.5C2031.44 2056.96 2032.03 2056.84 2032.49 2057.15L2049.77 2079.18L2065.51 2066.84C2066.07 2066.41 2066.9 2066.89 2067.99 2068.28C2068.98 2069.54 2069.08 2071.84 2068.3 2075.16L2054.87 2085.69L2081.69 2119.9C2087.17 2126.89 2092.43 2128.42 2097.47 2124.47C2099.01 2123.26 2100.22 2121.63 2101.1 2119.59C2101.87 2117.4 2102.28 2116.06 2102.34 2115.56C2103.34 2115.68 2104.01 2115.95 2104.34 2116.37C2105.32 2117.63 2105.76 2118.76 2105.64 2119.76C2105.65 2120.65 2105.5 2121.9 2105.18 2123.5C2105 2125 2104.61 2126.66 2104.01 2128.49C2102.13 2133.58 2099.92 2137.11 2097.41 2139.09C2095.03 2140.95 2092.45 2142.41 2089.66 2143.47C2087.12 2144.55 2084.35 2144.91 2081.36 2144.55C2074.7 2144.12 2068.57 2140.34 2062.98 2133.21L2036.82 2099.84L2026.96 2107.57C2026.32 2107.62 2025.61 2107.15 2024.85 2106.18Z" fill="white"/>
<path d="M2068.46 2058.41C2072.07 2055.44 2077.49 2049.92 2084.73 2041.84C2091.96 2033.76 2096.73 2027.89 2099.05 2024.24C2099.67 2024.08 2100.64 2024.59 2101.97 2025.77C2103.16 2026.84 2103.78 2027.75 2103.82 2028.5C2103.11 2029.3 2102.31 2030.73 2101.41 2032.79C2099.72 2036.29 2099.4 2038.51 2100.46 2039.46L2101.25 2040.17C2101.65 2040.52 2102.17 2040.75 2102.8 2040.84L2139.22 2050.53C2136.95 2045.87 2134.95 2041.7 2133.24 2038.02C2128.81 2028.57 2126.27 2023.55 2125.61 2022.96C2123.89 2021.41 2122.07 2020.51 2120.17 2020.23C2117.37 2019.63 2114.74 2020.03 2112.3 2021.43C2109.85 2022.57 2108.38 2023.41 2107.91 2023.93C2106.91 2023.99 2105.87 2023.54 2104.81 2022.6C2103.74 2021.4 2103.12 2020.49 2102.96 2019.87C2108.24 2015.04 2114.07 2009.05 2120.48 2001.9C2126.88 1994.75 2131.24 1989.34 2133.55 1985.69C2134.17 1985.53 2135.15 1986.04 2136.47 1987.23C2137.66 1988.3 2138.28 1989.21 2138.32 1989.96C2137.61 1990.75 2136.81 1992.18 2135.92 1994.25C2134.22 1997.74 2133.9 1999.96 2134.96 2000.91L2135.76 2001.62C2136.15 2001.98 2136.67 2002.2 2137.31 2002.29L2171.13 2012.88L2157.87 1984.91C2156.32 1981.85 2155.14 1979.96 2154.35 1979.25C2153.55 1978.54 2152.48 1978.41 2151.12 1978.86C2149.88 1979.18 2148.59 1979.82 2147.26 1980.78C2145.33 1982.39 2143.72 1983.93 2142.41 1985.39C2141.91 1985.42 2141.06 1984.9 2139.87 1983.83C2138.55 1982.64 2137.8 1981.74 2137.64 1981.12C2141.73 1977.62 2145.85 1973.55 2150 1968.92C2154.15 1964.28 2157.86 1959.61 2161.12 1954.89C2161.62 1954.86 2162.47 1955.38 2163.66 1956.45C2164.85 1957.52 2165.6 1958.42 2165.89 1959.16C2163.28 1962.08 2161.85 1964.61 2161.59 1966.76C2161.33 1968.92 2161.49 1970.61 2162.06 1971.84L2188.12 2029.88C2189.7 2033.45 2190.43 2036.36 2190.31 2038.64C2190.3 2040.78 2190.06 2042.11 2189.58 2042.64C2189.11 2043.17 2188.24 2043.47 2186.99 2043.54C2180.18 2041.02 2173.88 2038.73 2168.1 2036.66C2162.19 2034.47 2156.53 2032.39 2151.14 2030.42C2145.61 2028.33 2141.04 2026.63 2137.45 2025.32C2142.11 2034.51 2148.33 2047.95 2156.11 2065.65C2157.81 2069.08 2158.6 2071.93 2158.47 2074.2C2158.34 2076.48 2158.04 2077.88 2157.57 2078.41C2157.1 2078.94 2156.23 2079.24 2154.98 2079.31L2085.66 2058.78C2082.73 2058.06 2080.04 2058.4 2077.6 2059.79C2075.16 2061.19 2073.7 2062.15 2073.23 2062.68C2072.34 2062.6 2071.43 2062.02 2070.49 2060.94C2069.3 2059.88 2068.62 2059.03 2068.46 2058.41Z" fill="white"/>
<path d="M2236.44 1956.39C2237.88 1954.59 2238.64 1952.92 2238.73 1951.39C2238.78 1949.62 2238.6 1948.56 2238.18 1948.23L2219 1932.93C2218.48 1935.01 2217.9 1937.16 2217.26 1939.39C2216.6 1941.36 2216.16 1943.62 2215.94 1946.18C2215.58 1950.9 2217.14 1954.64 2220.62 1957.41C2224.2 1960.05 2227.41 1961.01 2230.24 1960.32C2232.93 1959.51 2235 1958.2 2236.44 1956.39ZM2258.97 1923.88C2259.94 1923.52 2260.85 1923.67 2261.68 1924.34C2262.51 1925 2263.18 1925.88 2263.68 1926.96C2263.85 1928.46 2263.8 1930.8 2263.53 1934C2263.03 1939.74 2261.79 1943.87 2259.79 1946.37C2257.8 1948.87 2255.27 1950.61 2252.22 1951.58C2249.14 1952.31 2246.49 1952.36 2244.27 1951.72C2244.66 1955.22 2244.11 1959.33 2242.62 1964.05C2241.23 1968.63 2239.77 1971.9 2238.21 1973.84C2236.66 1975.79 2234.51 1977.48 2231.76 1978.93C2229.02 1980.38 2226.27 1981.26 2223.52 1981.57C2217.28 1982.27 2212.42 1981.23 2208.94 1978.46C2205.47 1975.69 2203.31 1972.83 2202.48 1969.89C2201.61 1966.7 2201.58 1964.17 2202.38 1962.31C2203.16 1960.2 2203.96 1957.77 2204.79 1955.02C2205.73 1952.13 2206.71 1949.05 2207.73 1945.77C2209.17 1941.69 2211.05 1935.91 2213.38 1928.44L2206.91 1923.28C2203.44 1920.51 2199.7 1918.78 2195.7 1918.09C2191.57 1917.29 2188.5 1918.14 2186.5 1920.64C2184.51 1923.14 2184.18 1925.84 2185.51 1928.72C2186.96 1931.47 2188.7 1933.99 2190.73 1936.3C2194.71 1941.29 2194.98 1945.94 2191.54 1950.25C2190.1 1952.05 2188.21 1953.28 2185.88 1953.92C2183.52 1954.31 2181.65 1953.95 2180.26 1952.84C2178.31 1951.29 2176.59 1948.89 2175.08 1945.64C2174.77 1942.9 2175.1 1939.06 2176.07 1934.15C2178.11 1924.18 2181.35 1916.41 2185.78 1910.86C2190.33 1905.16 2196.1 1901.92 2203.1 1901.13C2210.2 1900.21 2216.88 1902.24 2223.14 1907.23L2248.77 1927.68C2250.72 1929.24 2252.46 1930.05 2253.98 1930.13C2255.37 1930.11 2256.4 1929.67 2257.06 1928.84C2257.84 1927.87 2258.3 1926.87 2258.43 1925.84L2258.97 1923.88Z" fill="white"/>
<path d="M2292.04 1892.5C2288.14 1898.66 2284.18 1905.72 2280.16 1913.7C2279.52 1913.72 2278.53 1913.3 2277.18 1912.44C2275.82 1911.58 2274.94 1910.81 2274.53 1910.13C2276.54 1906.98 2277.71 1904.46 2278.06 1902.58C2278.27 1900.6 2278.24 1899.32 2277.98 1898.74C2276.65 1896.84 2272.24 1893.51 2264.73 1888.75L2245.37 1876.46C2244.17 1875.7 2242.28 1874.7 2239.68 1873.48C2237.09 1872.25 2235.4 1871.6 2234.61 1871.52C2231.99 1871.33 2229.02 1873.86 2225.68 1879.12C2225.34 1879.32 2224.49 1879 2223.14 1878.14C2221.74 1877.04 2221.13 1876.33 2221.32 1876.03C2224.49 1870.05 2226.97 1863.82 2228.74 1857.37C2230.37 1850.83 2231.42 1845.7 2231.88 1841.99C2232.31 1841.63 2233.02 1841.35 2234 1841.13C2234.99 1840.91 2235.58 1840.97 2235.78 1841.31C2236.08 1841.5 2236.71 1842 2237.67 1842.82C2238.62 1843.64 2239.73 1844.55 2240.98 1845.56C2242.09 1846.47 2243.19 1847.38 2244.3 1848.3C2245.4 1849.21 2246.18 1849.81 2246.63 1850.09C2246.93 1850.28 2247.25 1850.28 2247.59 1850.07C2247.78 1849.77 2247.8 1849.57 2247.65 1849.48C2244.87 1843.92 2243.14 1839.67 2242.49 1836.72C2241.36 1830.53 2242.09 1825.41 2244.66 1821.36C2247.52 1816.86 2250.3 1814.3 2252.99 1813.7C2255.56 1813.64 2257.96 1814.33 2260.22 1815.76C2262.32 1817.09 2263.98 1818.46 2265.19 1819.86C2266.26 1821.17 2267.1 1822.66 2267.73 1824.32C2269.14 1827.74 2269.08 1830.65 2267.56 1833.05C2266.7 1834.4 2265.49 1835.32 2263.92 1835.8C2262.45 1836.13 2261.05 1836.5 2259.73 1836.93C2258.5 1837.2 2257.3 1837.6 2256.13 1838.12C2254.9 1838.39 2253.86 1839.2 2253 1840.56C2252.15 1841.91 2251.86 1843.52 2252.15 1845.38C2252.29 1847.16 2252.75 1848.92 2253.53 1850.68C2255.08 1854.19 2256.91 1856.62 2259.02 1857.95L2277.03 1869.39C2284.53 1874.15 2289.03 1876.69 2290.51 1877C2291.85 1877.22 2292.98 1877.09 2293.91 1876.63C2294.68 1876.07 2295.51 1875.43 2296.38 1874.72C2297.63 1873.41 2298.78 1871.93 2299.83 1870.28C2300.62 1870.36 2301.69 1870.83 2303.04 1871.69C2304.39 1872.55 2305.2 1873.27 2305.46 1873.86C2299.95 1880.88 2295.47 1887.1 2292.04 1892.5Z" fill="white"/>
<path d="M2292.5 1799.39C2292.67 1799.08 2293.24 1798.07 2294.19 1796.36C2295.07 1794.41 2296.04 1792.31 2297.1 1790.05C2299.72 1784.99 2301.47 1781.29 2302.38 1778.95C2303 1777.46 2302.54 1776.29 2300.98 1775.42C2299.28 1774.47 2297.4 1773.63 2295.37 1772.9C2293.33 1772.17 2291.4 1771.8 2289.57 1771.8C2285.2 1771.6 2282.24 1772.9 2280.68 1775.7C2279.2 1778.34 2278.81 1780.87 2279.5 1783.28C2280.03 1785.62 2281 1787.89 2282.41 1790.1C2285.41 1794.22 2288.77 1797.31 2292.5 1799.39ZM2317.22 1764.93C2312.8 1774.68 2306.58 1787.29 2298.55 1802.77C2308.02 1808.05 2316.48 1809.31 2323.93 1806.54C2329.44 1804.32 2333.5 1800.89 2336.1 1796.23C2338.78 1791.41 2340.01 1787.21 2339.77 1783.62C2339.53 1780.03 2339.04 1776.9 2338.28 1774.24C2339.29 1773.17 2340.49 1773.03 2341.88 1773.81C2343.28 1774.59 2344.27 1775.55 2344.86 1776.69C2345.37 1777.59 2346.05 1779.29 2346.9 1781.79C2347.58 1784.21 2348.05 1787.02 2348.31 1790.21C2349.05 1798.36 2347.91 1805.16 2344.88 1810.59C2341.85 1816.03 2338.55 1820.29 2334.99 1823.4C2331.27 1826.41 2327.19 1828.61 2322.75 1830.01C2313.15 1832.99 2303.53 1831.8 2293.9 1826.43C2283.97 1820.89 2277.18 1812.63 2273.54 1801.64C2269.69 1789.92 2270.15 1779.8 2274.91 1771.26C2280.02 1762.1 2286.63 1756.63 2294.75 1754.84C2301.35 1753.23 2307.52 1754.03 2313.27 1757.23C2314.97 1758.19 2316.23 1759.4 2317.04 1760.87C2317.85 1762.33 2317.91 1763.69 2317.22 1764.93Z" fill="white"/>
<defs>
<radialGradient id="paint0_radial_2890_2119" cx="0" cy="0" r="1" gradientUnits="userSpaceOnUse" gradientTransform="translate(1031 1191) rotate(8.0638) scale(1283.19)">
<stop stop-color="#FF0000"/>
<stop offset="0.960165" stop-color="#4B0202"/>
</radialGradient>
<linearGradient id="paint1_linear_2890_2119" x1="0" y1="1275" x2="2550" y2="1275" gradientUnits="userSpaceOnUse">
<stop stop-color="#DB8A04"/>
<stop offset="0.484375" stop-color="#FFBF52"/>
<stop offset="1" stop-color="#DB7600"/>
</linearGradient>
</defs>
</svg>
